<?xml version="1.0" encoding="UTF-8"?>
<!DOCTYPE svg PUBLIC "-//W3C//DTD SVG 1.1//EN" "http://www.w3.org/Graphics/SVG/1.1/DTD/svg11.dtd">
<!-- Creator: CorelDRAW 2020 (64-Bit) -->
<svg xmlns="http://www.w3.org/2000/svg" xml:space="preserve" width="100%" height="100%" version="1.1" shape-rendering="geometricPrecision" text-rendering="geometricPrecision" image-rendering="optimizeQuality" fill-rule="evenodd" clip-rule="evenodd"
viewBox="0 0 23307.3 6231.8"
 xmlns:xlink="http://www.w3.org/1999/xlink"
 xmlns:xodm="http://www.corel.com/coreldraw/odm/2003">
 <g id="Ebene_x0020_1">
  <metadata id="CorelCorpID_0Corel-Layer"/>
  <g id="_1840219741936">
   <path fill="black" fill-rule="nonzero" d="M6053.26 2137.13c0,107.46 -4.79,187.58 -14.39,240.35 -9.59,52.77 -28.78,100.27 -57.57,142.49 -3.84,5.75 -8.64,11.99 -14.39,18.71 -5.76,6.71 -11.52,13.91 -17.27,21.58 -47.98,61.41 -117.54,115.14 -208.69,161.2 -91.16,46.06 -214.45,69.08 -369.89,69.08 -151.6,0 -278.25,-23.02 -379.96,-69.08 -101.71,-46.06 -177.51,-114.18 -227.4,-204.37 -5.76,-9.6 -11.04,-19.19 -15.83,-28.79 -4.8,-9.59 -9.12,-18.23 -12.96,-25.9 -13.43,-34.55 -23.02,-72.93 -28.78,-115.14 -5.76,-42.22 -8.64,-104.59 -8.64,-187.11l0 -1384.55 299.37 0 0 1280.93c0,15.35 0,31.18 0,47.49 0,16.31 0.96,32.15 2.88,47.5 1.91,57.57 8.15,112.26 18.71,164.07 10.55,51.82 27.34,91.15 50.37,118.02 26.86,30.7 65.24,56.13 115.14,76.28 49.89,20.15 113.22,30.22 189.98,30.22 72.92,0 135.77,-10.55 188.54,-31.66 52.77,-21.11 94.51,-51.81 125.21,-92.11 24.95,-32.62 42.7,-74.84 53.26,-126.65 10.55,-51.82 15.83,-116.1 15.83,-192.86l0 -1321.23 296.48 0 0 1361.53z"/>
   <path id="1" fill="black" fill-rule="nonzero" d="M7552.96 2758.88l-284.97 0 0 -967.17c0,-63.33 -2.87,-109.39 -8.63,-138.17 -5.76,-28.79 -17.27,-53.73 -34.54,-74.84 -13.44,-17.27 -31.67,-30.7 -54.69,-40.3 -23.03,-9.59 -50.86,-14.39 -83.48,-14.39 -24.95,0 -51.81,4.32 -80.6,12.95 -28.78,8.64 -58.53,20.63 -89.23,35.98 -32.62,15.35 -64.29,34.06 -94.99,56.13 -30.71,22.07 -58.53,45.58 -83.48,70.53l0 1059.28 -279.21 0 0 -1067.92c0,-61.41 -1.92,-111.3 -5.76,-149.68 -3.84,-38.38 -10.55,-74.84 -20.15,-109.38 -3.84,-13.44 -8.15,-26.87 -12.95,-40.3 -4.8,-13.44 -10.08,-27.83 -15.83,-43.18l264.82 -74.84c9.59,19.19 17.75,37.42 24.47,54.69 6.71,17.27 11.99,33.58 15.83,48.93 3.83,17.28 6.71,34.55 8.63,51.82 1.92,17.27 2.88,35.5 2.88,54.69 21.11,-17.27 39.82,-32.62 56.13,-46.06 16.31,-13.43 33.1,-25.9 50.37,-37.42 9.6,-7.67 20.15,-14.87 31.67,-21.59 11.51,-6.71 23.03,-13.91 34.54,-21.58 32.62,-19.19 66.21,-34.55 100.75,-46.06 34.54,-11.51 69.08,-19.19 103.62,-23.03 11.52,-1.92 23.03,-3.36 34.54,-4.32 11.52,-0.96 23.03,-1.44 34.55,-1.44 78.68,0 150.64,19.19 215.88,57.57 65.25,38.38 110.35,89.24 135.29,152.56 11.52,24.95 20.15,52.78 25.91,83.48 5.76,30.7 8.63,63.33 8.63,97.87l0 1085.19z"/>
   <path id="2" fill="black" fill-rule="nonzero" d="M8238.04 2758.88l-293.6 0 0 -1436.37 293.6 -46.05 0 1482.42zm54.69 -1876.78c0,53.74 -19.67,100.27 -59.01,139.61 -39.34,39.34 -86.83,59.01 -142.48,59.01 -53.73,0 -99.79,-19.67 -138.17,-59.01 -38.38,-39.34 -57.57,-85.87 -57.57,-139.61 0,-55.65 19.67,-103.14 59.01,-142.48 39.34,-39.34 85.88,-59.01 139.61,-59.01 55.65,0 102.66,19.67 141.04,59.01 38.38,39.34 57.57,86.83 57.57,142.48z"/>
   <path id="3" fill="black" fill-rule="nonzero" d="M9789.54 1313.88l-535.39 1453.64 -259.07 0 -521.01 -1442.13 290.73 -48.93 287.85 869.3c5.76,15.35 11.04,31.67 15.83,48.94 4.8,17.27 10.08,34.54 15.83,51.81 9.6,32.62 18.71,65.24 27.35,97.87 8.64,32.62 15.83,61.41 21.59,86.35l2.88 -2.88c9.59,-44.13 20.15,-88.75 31.66,-133.85 11.51,-45.09 26.87,-96.43 46.06,-154l276.33 -826.12 299.36 0z"/>
   <path id="4" fill="black" fill-rule="nonzero" d="M11122.29 2105.46l-877.94 0 0 25.91c0,59.49 4.79,112.74 14.39,159.76 9.59,47.01 24.95,86.83 46.05,119.45 36.47,53.73 82.52,94.03 138.17,120.9 55.65,26.87 117.06,40.3 184.23,40.3 67.16,0 130.01,-11.52 188.54,-34.54 58.53,-23.03 114.66,-58.53 168.39,-106.51l112.26 175.59c-71,61.41 -150.16,107.46 -237.48,138.17 -87.31,30.7 -178.94,46.05 -274.89,46.05 -203.41,0 -363.65,-67.64 -480.71,-202.93 -117.06,-135.29 -175.59,-320.95 -175.59,-556.99 0,-124.73 13.44,-230.76 40.3,-318.07 26.87,-87.32 71.96,-166.47 135.29,-237.48 59.49,-67.16 125.69,-117.53 198.62,-151.12 72.92,-33.58 154.48,-50.37 244.67,-50.37 78.68,0 153.04,13.91 223.08,41.74 70.04,27.82 129.05,66.68 177.03,116.58 65.24,65.24 110.34,143.44 135.29,234.59 24.94,91.16 38.38,219.25 40.3,384.28 0,3.84 0,8.64 0,14.39 0,5.76 0,11.52 0,17.27 0,3.84 0,7.68 0,11.52 0,3.84 0,7.67 0,11.51zm-296.49 -213.01c0,-65.24 -4.32,-119.93 -12.95,-164.07 -8.64,-44.14 -25.43,-81.56 -50.38,-112.26 -15.35,-17.27 -29.26,-32.62 -41.73,-46.06 -12.48,-13.43 -24.47,-24.94 -35.98,-34.54 -21.11,-15.35 -42.7,-26.38 -64.77,-33.1 -22.07,-6.72 -48.46,-10.08 -79.16,-10.08 -97.87,0 -171.27,36.47 -220.2,109.39 -48.94,72.92 -73.4,169.83 -73.4,290.72l578.57 0z"/>
   <path id="5" fill="black" fill-rule="nonzero" d="M12198.84 1293.73l-97.87 276.33c-7.67,-3.83 -14.87,-6.71 -21.58,-8.63 -6.72,-1.92 -12.96,-3.84 -18.71,-5.76 -5.76,0 -12,-0.48 -18.72,-1.44 -6.71,-0.96 -13.91,-1.44 -21.58,-1.44 -76.76,0 -144.41,27.35 -202.94,82.04 -58.53,54.69 -87.79,116.58 -87.79,185.66l0 938.39 -284.97 0 0 -1051.61c0,-87.79 -3.84,-158.8 -11.52,-212.53 -7.67,-53.25 -21.1,-102.18 -40.29,-146.32l270.57 -71.96c5.76,11.51 10.56,22.55 14.4,33.1 3.83,10.55 7.67,20.63 11.51,30.22 7.68,21.11 13.91,42.7 18.71,64.77 4.8,22.07 7.2,48.46 7.2,79.16l0 17.27c26.86,-36.46 57.57,-70.52 92.11,-102.19 34.54,-31.66 70.04,-57.09 106.5,-76.28 7.68,-5.75 14.87,-10.07 21.59,-12.95 6.72,-2.88 13.91,-6.24 21.59,-10.07 21.11,-7.68 43.66,-13.92 67.64,-18.71 23.99,-4.8 48.46,-7.2 73.41,-7.2 17.27,0 33.1,1.44 47.49,4.32 14.39,2.88 27.35,6.23 38.86,10.07 1.92,1.92 4.32,3.36 7.2,4.32 2.87,0.96 5.27,1.44 7.19,1.44z"/>
   <path id="6" fill="black" fill-rule="nonzero" d="M13410.69 2315.59c0,145.85 -53.26,262.9 -159.76,351.18 -106.5,88.27 -245.15,132.41 -415.94,132.41 -36.46,0 -73.4,-2.4 -110.82,-7.2 -37.42,-4.79 -75.32,-11.03 -113.7,-18.71 -55.66,-11.51 -111.31,-28.3 -166.96,-50.37 -55.65,-22.07 -109.38,-47.5 -161.19,-76.28l106.5 -207.25c53.73,32.62 112.26,61.41 175.59,86.35 63.33,24.95 127.61,42.22 192.86,51.82 17.27,3.83 34.06,6.23 50.37,7.19 16.31,0.96 32.15,1.44 47.5,1.44 76.76,0 138.64,-20.15 185.66,-60.45 47.02,-40.3 70.52,-93.07 70.52,-158.31 0,-59.49 -18.71,-106.51 -56.13,-141.05 -37.42,-34.54 -96.43,-59.49 -177.02,-74.84l-175.59 -34.54c-59.49,-13.44 -111.78,-32.15 -156.88,-56.13 -45.1,-23.99 -83,-54.22 -113.7,-90.68 -28.79,-32.62 -50.85,-71.48 -66.21,-116.58 -15.35,-45.09 -23.02,-91.63 -23.02,-139.6 0,-134.33 49.41,-243.71 148.24,-328.15 98.83,-84.44 226.92,-126.65 384.28,-126.65 90.19,0 175.58,11.99 256.18,35.98 80.6,23.99 151.6,53.25 213.01,87.79l-97.87 201.5c-47.97,-23.03 -93.07,-43.18 -135.29,-60.45 -42.22,-17.27 -84.43,-29.75 -126.65,-37.42 -15.35,-1.92 -31.18,-3.84 -47.5,-5.76 -16.31,-1.92 -33.1,-2.88 -50.37,-2.88 -72.92,0 -131.45,18.71 -175.59,56.13 -44.13,37.42 -66.2,86.84 -66.2,148.24 0,23.03 3.84,43.66 11.51,61.89 7.68,18.23 18.23,35.02 31.66,50.38 15.36,17.27 35.51,31.18 60.45,41.73 24.95,10.56 56.61,20.63 94.99,30.23l187.11 43.18c76.75,19.19 138.16,41.73 184.22,67.64 46.05,25.91 83.47,56.13 112.26,90.67 26.87,32.63 47.49,69.57 61.89,110.82 14.39,41.26 21.59,86.84 21.59,136.73z"/>
   <path id="7" fill="black" fill-rule="nonzero" d="M13977.75 2758.88l-293.6 0 0 -1436.37 293.6 -46.05 0 1482.42zm54.69 -1876.78c0,53.74 -19.67,100.27 -59.01,139.61 -39.34,39.34 -86.83,59.01 -142.48,59.01 -53.73,0 -99.79,-19.67 -138.17,-59.01 -38.38,-39.34 -57.57,-85.87 -57.57,-139.61 0,-55.65 19.67,-103.14 59.01,-142.48 39.34,-39.34 85.88,-59.01 139.61,-59.01 55.65,0 102.66,19.67 141.04,59.01 38.38,39.34 57.57,86.83 57.57,142.48z"/>
   <path id="8" fill="black" fill-rule="nonzero" d="M14743.43 887.86c0,7.68 -0.96,16.31 -2.88,25.91 -1.92,9.59 -2.88,19.19 -2.88,28.78 -1.92,28.79 -4.32,59.97 -7.2,93.55 -2.87,33.59 -5.27,67.65 -7.19,102.19 -1.92,28.79 -3.36,58.05 -4.32,87.79 -0.96,29.75 -1.44,57.09 -1.44,82.04l356.93 0 -80.59 204.37 -282.1 0 0 857.79c0,84.44 12.48,142.49 37.42,174.15 24.95,31.67 71.97,47.5 141.05,47.5 15.35,0 29.74,-0.96 43.18,-2.88 13.43,-1.92 25.9,-3.84 37.42,-5.76 9.59,-1.92 19.67,-4.8 30.22,-8.63 10.56,-3.84 20.63,-7.68 30.23,-11.52l37.42 175.59c-42.22,19.19 -85.88,34.06 -130.97,44.62 -45.1,10.55 -92.6,15.83 -142.49,15.83 -5.76,0 -11.99,0 -18.71,0 -6.72,0 -12.95,0 -18.71,0 -42.22,-3.84 -83,-11.52 -122.34,-23.03 -39.34,-11.51 -69.56,-26.86 -90.67,-46.05 -3.84,-3.84 -8.15,-7.68 -12.95,-11.52 -4.8,-3.84 -9.12,-7.67 -12.96,-11.51 -24.94,-23.03 -45.57,-51.82 -61.88,-86.36 -16.31,-34.54 -24.47,-97.87 -24.47,-189.98l0 -918.24 -172.71 0 0 -201.49 172.71 0c0,-26.87 0.48,-57.57 1.44,-92.11 0.96,-34.54 2.4,-70.05 4.32,-106.51 1.92,-26.86 3.84,-54.21 5.75,-82.03 1.92,-27.83 4.8,-53.26 8.64,-76.28l290.73 -66.21z"/>
   <path id="9" fill="black" fill-rule="nonzero" d="M16505.06 2632.23l-146.8 189.98c-47.98,-19.19 -89.71,-46.06 -125.22,-80.6 -35.5,-34.54 -60.92,-73.88 -76.28,-118.02 -13.43,11.51 -24.94,21.59 -34.54,30.23 -9.59,8.63 -18.23,17.75 -25.9,27.34 -1.92,0 -3.84,0.96 -5.76,2.88 -1.92,1.92 -2.88,2.88 -2.88,2.88 -3.84,3.84 -7.68,7.19 -11.51,10.07 -3.84,2.88 -7.68,6.24 -11.52,10.08 -44.13,32.62 -91.63,56.13 -142.48,70.52 -50.86,14.39 -106.99,21.59 -168.39,21.59 -88.28,0 -160.72,-10.56 -217.33,-31.66 -56.61,-21.11 -104.11,-49.9 -142.49,-86.36 -32.62,-30.7 -58.04,-67.16 -76.28,-109.38 -18.23,-42.22 -30.22,-85.4 -35.98,-129.53 -1.92,-11.52 -3.35,-22.55 -4.31,-33.11 -0.96,-10.55 -1.44,-21.59 -1.44,-33.1 0,-166.95 63.8,-294.08 191.42,-381.4 127.61,-87.31 310.39,-130.97 548.35,-130.97 7.67,0 14.39,0 20.15,0 5.75,0 10.55,0 14.39,0 9.6,0 18.71,0.48 27.35,1.44 8.63,0.96 19.67,1.44 33.1,1.44l0 -86.36c0,-55.65 -2.4,-98.35 -7.2,-128.09 -4.8,-29.74 -15.83,-55.17 -33.1,-76.28 -19.19,-23.03 -42.22,-39.82 -69.08,-50.37 -26.87,-10.56 -61.41,-15.83 -103.63,-15.83 -40.3,0 -82.52,4.79 -126.65,14.39 -44.14,9.59 -91.16,25.9 -141.05,48.93 -7.68,3.84 -15.35,7.2 -23.03,10.08 -7.67,2.88 -15.35,6.23 -23.02,10.07 -11.52,5.76 -22.55,11.52 -33.11,17.27 -10.55,5.76 -20.63,12.48 -30.22,20.15 -11.52,5.76 -22.55,12.48 -33.1,20.15 -10.56,7.68 -22.55,16.31 -35.99,25.91l-132.41 -204.38c17.27,-11.51 34.07,-22.06 50.38,-31.66 16.31,-9.59 32.14,-18.23 47.49,-25.9 15.35,-7.68 31.67,-15.84 48.94,-24.47 17.27,-8.64 34.54,-16.79 51.81,-24.47 5.76,-1.92 11.03,-3.84 15.83,-5.76 4.8,-1.92 10.08,-3.83 15.83,-5.75 21.11,-9.6 42.7,-17.75 64.77,-24.47 22.07,-6.72 43.66,-12.95 64.77,-18.71 42.21,-11.51 84.91,-20.15 128.09,-25.91 43.18,-5.75 86.83,-8.63 130.97,-8.63 107.46,0 197.66,19.67 270.58,59.01 72.92,39.34 124.73,98.35 155.44,177.02 1.91,3.84 3.35,7.2 4.31,10.08 0.96,2.88 1.44,6.24 1.44,10.07 9.6,26.87 15.83,56.13 18.71,87.8 2.88,31.66 4.32,79.16 4.32,142.48 0,3.84 0,9.6 0,17.27 0,7.68 0,15.36 0,23.03 0,1.92 0,3.36 0,4.32 0,0.96 0,1.44 0,1.44 -1.92,9.59 -2.88,18.23 -2.88,25.9 0,7.68 0,12.48 0,14.4l-8.63 440.41c0,3.83 0,9.11 0,15.83 0,6.71 0,12.95 0,18.71 0,1.92 0,4.32 0,7.19 0,2.88 0,6.24 0,10.08 0,84.43 8.63,146.32 25.9,185.66 17.27,39.34 49.9,74.36 97.87,105.07zm-400.11 -569.94c-13.43,-1.92 -26.38,-3.36 -38.86,-4.32 -12.47,-0.96 -24.47,-1.44 -35.98,-1.44 -97.87,0 -176.07,8.15 -234.6,24.47 -58.53,16.31 -104.1,40.77 -136.72,73.4 -24.95,24.94 -43.18,53.73 -54.7,86.35 -11.51,32.62 -17.27,71 -17.27,115.14 0,74.84 18.71,132.89 56.13,174.15 37.42,41.26 91.64,61.89 162.64,61.89 59.49,0 115.62,-16.31 168.39,-48.94 52.77,-32.62 94.51,-75.8 125.21,-129.53l5.76 -351.17zm-356.93 -1106.78c0,48.45 -17.27,91.15 -51.81,127.61 -34.55,36.94 -76.76,55.17 -126.66,55.17 -47.97,0 -89.71,-18.23 -125.21,-55.17 -35.5,-36.46 -53.25,-79.16 -53.25,-127.61 0,-50.38 17.75,-93.08 53.25,-127.62 35.5,-35.02 77.24,-52.29 125.21,-52.29 49.9,0 92.11,17.27 126.66,52.29 34.54,34.54 51.81,77.24 51.81,127.62zm598.72 0c0,48.45 -16.79,91.15 -50.37,127.61 -33.58,36.94 -75.32,55.17 -125.21,55.17 -49.9,0 -92.59,-18.23 -128.1,-55.17 -35.5,-36.46 -53.25,-79.16 -53.25,-127.61 0,-50.38 17.75,-93.08 53.25,-127.62 35.51,-35.02 78.2,-52.29 128.1,-52.29 47.97,0 89.23,17.27 123.77,52.29 34.54,34.54 51.81,77.24 51.81,127.62z"/>
   <path id="10" fill="black" fill-rule="nonzero" d="M17152.73 887.86c0,7.68 -0.96,16.31 -2.88,25.91 -1.92,9.59 -2.88,19.19 -2.88,28.78 -1.92,28.79 -4.32,59.97 -7.2,93.55 -2.87,33.59 -5.27,67.65 -7.19,102.19 -1.92,28.79 -3.36,58.05 -4.32,87.79 -0.96,29.75 -1.44,57.09 -1.44,82.04l356.93 0 -80.59 204.37 -282.1 0 0 857.79c0,84.44 12.48,142.49 37.42,174.15 24.95,31.67 71.97,47.5 141.05,47.5 15.35,0 29.74,-0.96 43.18,-2.88 13.43,-1.92 25.9,-3.84 37.42,-5.76 9.59,-1.92 19.67,-4.8 30.22,-8.63 10.56,-3.84 20.63,-7.68 30.23,-11.52l37.42 175.59c-42.22,19.19 -85.88,34.06 -130.97,44.62 -45.1,10.55 -92.6,15.83 -142.49,15.83 -5.76,0 -11.99,0 -18.71,0 -6.72,0 -12.95,0 -18.71,0 -42.22,-3.84 -83,-11.52 -122.34,-23.03 -39.34,-11.51 -69.56,-26.86 -90.67,-46.05 -3.84,-3.84 -8.15,-7.68 -12.95,-11.52 -4.8,-3.84 -9.12,-7.67 -12.96,-11.51 -24.94,-23.03 -45.57,-51.82 -61.88,-86.36 -16.31,-34.54 -24.47,-97.87 -24.47,-189.98l0 -918.24 -172.71 0 0 -201.49 172.71 0c0,-26.87 0.48,-57.57 1.44,-92.11 0.96,-34.54 2.4,-70.05 4.32,-106.51 1.92,-26.86 3.84,-54.21 5.75,-82.03 1.92,-27.83 4.8,-53.26 8.64,-76.28l290.73 -66.21z"/>
   <path fill="#006AB3" fill-rule="nonzero" d="M7049.07 3398.45c104.84,0 205,15.44 300.48,46.34 95.49,30.89 189.09,77.22 280.83,139.01l-101.1 165.68c-54.29,-35.57 -103.9,-64.59 -148.84,-87.05 -44.93,-22.47 -87.99,-39.32 -129.18,-50.55 -31.82,-9.36 -63.18,-15.91 -94.07,-19.66 -30.9,-3.74 -63.19,-5.62 -96.89,-5.62 -119.82,0 -213.9,28.09 -282.23,84.25 -68.34,56.17 -102.51,133.86 -102.51,233.09 0,76.76 24.81,139.48 74.42,188.16 49.62,48.67 131.53,90.8 245.73,126.37l221.85 70.21c5.62,1.87 11.24,3.74 16.85,5.61 5.62,1.88 11.24,3.75 16.85,5.62 74.89,24.34 135.74,50.55 182.54,78.63 46.81,28.08 88,62.72 123.57,103.91 31.82,37.44 58.5,80.03 80.03,127.78 21.53,47.74 35.11,96.88 40.72,147.43 1.88,11.23 3.28,22 4.22,32.3 0.93,10.29 1.4,21.06 1.4,32.29 0,89.87 -23.4,175.05 -70.21,255.56 -46.8,80.5 -112.33,149.77 -196.58,207.81 -63.65,41.19 -129.65,70.67 -197.98,88.46 -68.34,17.79 -146.5,26.68 -234.49,26.68 -114.21,0 -221.86,-14.04 -322.96,-42.12 -101.1,-28.09 -199.39,-71.15 -294.87,-129.19l101.1 -179.73c80.5,58.04 162.41,100.17 245.73,126.38 83.31,26.21 173.64,39.31 271,39.31 69.27,0 126.37,-5.61 171.3,-16.85 44.93,-11.23 87.06,-30.89 126.37,-58.97 0,-1.87 0.94,-3.28 2.81,-4.21 1.87,-0.94 3.75,-2.34 5.62,-4.22 46.8,-35.57 81.44,-76.29 103.91,-122.16 22.46,-45.87 33.7,-96.88 33.7,-153.05 0,-86.12 -28.56,-158.67 -85.66,-217.64 -57.1,-58.98 -143.69,-106.25 -259.76,-141.82l-193.78 -58.97c-22.46,-7.49 -43.99,-14.51 -64.59,-21.07 -20.59,-6.55 -39.31,-12.63 -56.16,-18.25 -50.55,-18.72 -93.14,-38.38 -127.78,-58.97 -34.64,-20.6 -65.99,-44.94 -94.08,-73.02 -39.31,-43.06 -69.27,-90.8 -89.86,-143.22 -20.6,-52.42 -30.89,-109.53 -30.89,-171.31 0,-164.75 57.1,-298.14 171.3,-400.18 114.21,-102.03 264.92,-153.05 452.14,-153.05z"/>
   <path id="1" fill="#006AB3" fill-rule="nonzero" d="M8165.64 4310.21c0,-76.3 -2.81,-143.23 -8.43,-200.33 -5.62,-56.63 -14.04,-102.03 -25.27,-135.73l227.47 -39.32c3.74,20.6 7.02,45.87 9.83,75.83 2.81,29.95 4.21,63.65 4.21,101.09 0,3.75 0,8.43 0,14.05 0,5.61 0,13.1 0,22.46 58.04,-67.4 122.16,-118.41 192.37,-153.05 70.2,-34.64 143.69,-51.95 220.45,-51.95 71.14,0 139.48,14.97 205,45.4 65.53,30.42 121.7,72.55 168.5,125.9 52.42,63.66 91.27,139.95 116.55,228.88 25.27,88.93 37.91,196.11 37.91,321.55 0,112.33 -8.9,204.53 -26.68,276.61 -17.79,72.08 -46.34,140.89 -85.65,206.41 -50.55,80.51 -112.34,142.76 -185.35,186.75 -73.02,44 -155.39,66 -247.13,66 -71.14,0 -140.88,-14.04 -209.22,-42.12 -68.33,-28.09 -126.84,-67.4 -175.52,-117.95 0,5.61 0,42.12 0,109.52 0,67.4 0,141.35 0,221.86 0,84.24 0,161 0,230.27 0,69.28 0,103.91 0,103.91l-219.04 44.93 0 -1640.97zm219.04 23.4l0 704.88c44.94,50.55 92.21,90.8 141.82,120.76 49.61,29.95 99.7,49.61 150.25,58.97 7.48,0 15.91,0.47 25.27,1.4 9.36,0.94 17.79,1.41 25.27,1.41 65.53,0 124.97,-15.91 178.33,-47.74 53.36,-31.83 92.21,-73.95 116.54,-126.38 20.6,-44.93 35.58,-95.48 44.94,-151.64 9.36,-56.17 14.04,-123.57 14.04,-202.2 0,-84.25 -5.62,-161.94 -16.85,-233.09 -11.23,-71.14 -27.15,-127.31 -47.74,-168.5 -22.47,-48.67 -57.1,-86.58 -103.91,-113.73 -46.8,-27.15 -98.29,-40.72 -154.45,-40.72 -69.28,0 -135.27,16.38 -197.99,49.14 -62.72,32.77 -121.22,81.91 -175.52,147.44z"/>
   <path id="2" fill="#006AB3" fill-rule="nonzero" d="M9885.99 5367.06l0 -1392.91 233.09 -36.51 0 1429.42 -233.09 0zm-53.36 -1828.2c0,-48.67 16.85,-89.86 50.55,-123.56 33.7,-33.7 73.95,-50.55 120.76,-50.55 48.67,0 89.4,16.38 122.16,49.14 32.76,32.77 49.14,73.49 49.14,122.16 0,46.81 -16.38,87.06 -49.14,120.76 -32.76,33.7 -73.49,50.55 -122.16,50.55 -46.81,0 -87.06,-16.38 -120.76,-49.14 -33.7,-32.77 -50.55,-72.55 -50.55,-119.36z"/>
   <path id="3" fill="#006AB3" fill-rule="nonzero" d="M10769.47 4299.91c0,-61.78 -1.87,-110.93 -5.62,-147.44 -3.74,-36.5 -11.23,-70.67 -22.46,-102.5 -1.87,-9.36 -5.15,-18.72 -9.83,-28.08 -4.68,-9.36 -8.89,-19.66 -12.64,-30.89l219.05 -58.98c5.62,13.11 11.23,25.75 16.85,37.92 5.61,12.16 10.3,23.87 14.04,35.1 5.62,20.59 9.83,41.19 12.64,61.78 2.81,20.6 4.21,44.93 4.21,73.02l0 19.66c44.93,-63.66 97.82,-116.08 158.67,-157.27 60.84,-41.19 124.03,-65.53 189.56,-73.01 7.49,0 14.98,-0.47 22.46,-1.41 7.49,-0.93 14.98,-1.4 22.47,-1.4 1.87,0 3.28,0 4.21,0 0.94,0 2.34,0 4.22,0 7.48,0 14.97,0.93 22.46,2.81 7.49,1.87 14.04,2.8 19.66,2.8 7.49,1.88 13.57,3.75 18.25,5.62 4.68,1.87 7.02,2.81 7.02,2.81l-89.86 238.7c-7.49,-1.87 -14.04,-3.74 -19.66,-5.61 -5.62,-1.88 -10.3,-2.81 -14.04,-2.81 -3.75,-1.87 -7.96,-2.81 -12.64,-2.81 -4.68,0 -9.83,0 -15.44,0 -41.19,0 -82.38,8.89 -123.57,26.68 -41.19,17.78 -77.69,42.59 -109.52,74.42 -7.49,7.49 -14.51,14.98 -21.06,22.46 -6.56,7.49 -12.64,14.05 -18.26,19.66 -16.85,22.47 -28.08,46.81 -33.7,73.02 -5.61,26.21 -8.42,61.78 -8.42,106.71l0 876.19 -219.05 0 0 -1067.15z"/>
   <path id="4" fill="#006AB3" fill-rule="nonzero" d="M11827.07 5367.06l0 -1392.91 233.09 -36.51 0 1429.42 -233.09 0zm-53.36 -1828.2c0,-48.67 16.85,-89.86 50.55,-123.56 33.7,-33.7 73.95,-50.55 120.76,-50.55 48.67,0 89.4,16.38 122.16,49.14 32.76,32.77 49.14,73.49 49.14,122.16 0,46.81 -16.38,87.06 -49.14,120.76 -32.76,33.7 -73.49,50.55 -122.16,50.55 -46.81,0 -87.06,-16.38 -120.76,-49.14 -33.7,-32.77 -50.55,-72.55 -50.55,-119.36z"/>
   <path id="5" fill="#006AB3" fill-rule="nonzero" d="M12946.45 3965.72l353.84 0 -67.4 171.31 -294.87 0 0 896.31c0,76.76 12.64,130.12 37.91,161.01 25.28,30.89 72.55,46.34 141.82,46.34 31.83,0 58.51,-2.34 80.04,-7.02 21.53,-4.68 41.66,-11.7 60.38,-21.07l30.89 140.42c-35.57,16.85 -73.48,29.95 -113.74,39.31 -40.25,9.37 -84.71,14.05 -133.39,14.05 -35.57,0 -68.34,-3.28 -98.29,-9.83 -29.96,-6.56 -58.04,-16.38 -84.25,-29.49 -48.68,-22.47 -83.31,-56.63 -103.91,-102.03 -20.59,-45.87 -30.89,-103.44 -30.89,-172.71l0 -955.29 -182.54 0 0 -171.31 182.54 0 0 -16.85c0,-35.57 1.41,-75.35 4.22,-119.35 2.8,-44 7.95,-101.57 15.44,-172.71l2.81 -36.51 227.47 -50.55c0,0 -1.4,11.71 -4.21,35.11 -2.81,23.4 -6.09,54.76 -9.83,94.08 -1.87,29.95 -4.21,62.71 -7.02,98.29 -2.81,35.57 -5.15,72.08 -7.02,109.52 0,9.36 0,19.19 0,29.49 0,10.29 0,20.12 0,29.48z"/>
   <polygon fill="#006AB3" fill-rule="nonzero" points="18238.34,1061.42 18238.34,867.64 19513.3,867.64 19499.26,1061.42 18976.92,1061.42 18976.92,2794.13 18755.07,2794.13 18755.07,1061.42 "/>
   <path id="1" fill="#006AB3" fill-rule="nonzero" d="M19617.21 1726.98c0,-61.78 -1.87,-110.93 -5.62,-147.44 -3.74,-36.5 -11.23,-70.67 -22.46,-102.5 -1.87,-9.36 -5.15,-18.72 -9.83,-28.08 -4.68,-9.36 -8.89,-19.66 -12.64,-30.89l219.05 -58.98c5.62,13.11 11.23,25.75 16.85,37.92 5.61,12.16 10.3,23.87 14.04,35.1 5.62,20.59 9.83,41.19 12.64,61.78 2.81,20.6 4.21,44.93 4.21,73.02l0 19.66c44.93,-63.66 97.82,-116.08 158.67,-157.27 60.84,-41.19 124.03,-65.53 189.56,-73.01 7.49,0 14.98,-0.47 22.46,-1.41 7.49,-0.93 14.98,-1.4 22.47,-1.4 1.87,0 3.28,0 4.21,0 0.94,0 2.34,0 4.22,0 7.48,0 14.97,0.93 22.46,2.81 7.49,1.87 14.04,2.8 19.66,2.8 7.49,1.88 13.57,3.75 18.25,5.62 4.68,1.87 7.02,2.81 7.02,2.81l-89.86 238.7c-7.49,-1.87 -14.04,-3.74 -19.66,-5.61 -5.62,-1.88 -10.3,-2.81 -14.04,-2.81 -3.75,-1.87 -7.96,-2.81 -12.64,-2.81 -4.68,0 -9.83,0 -15.44,0 -41.19,0 -82.38,8.89 -123.57,26.68 -41.19,17.78 -77.69,42.59 -109.52,74.42 -7.49,7.49 -14.51,14.98 -21.06,22.46 -6.56,7.49 -12.64,14.05 -18.26,19.66 -16.85,22.47 -28.08,46.81 -33.7,73.02 -5.61,26.21 -8.42,61.78 -8.42,106.71l0 876.19 -219.05 0 0 -1067.15z"/>
   <path id="2" fill="#006AB3" fill-rule="nonzero" d="M20504.63 2794.13l0 -1392.91 233.09 -36.51 0 1429.42 -233.09 0zm-53.36 -1828.2c0,-48.67 16.85,-89.86 50.55,-123.56 33.7,-33.7 73.95,-50.55 120.76,-50.55 48.67,0 89.4,16.38 122.16,49.14 32.76,32.77 49.14,73.49 49.14,122.16 0,46.81 -16.38,87.06 -49.14,120.76 -32.76,33.7 -73.49,50.55 -122.16,50.55 -46.81,0 -87.06,-16.38 -120.76,-49.14 -33.7,-32.77 -50.55,-72.55 -50.55,-119.36z"/>
   <path id="3" fill="#006AB3" fill-rule="nonzero" d="M21776.78 2642.48c67.4,0 129.18,-10.76 185.35,-32.29 56.16,-21.53 108.59,-54.76 157.26,-99.7l84.25 140.42c-61.78,56.16 -133.39,98.76 -214.83,127.77 -81.44,29.02 -167.1,43.53 -256.96,43.53 -192.84,0 -344.49,-65.52 -454.94,-196.58 -110.46,-131.05 -165.69,-312.65 -165.69,-544.81 0,-117.94 13.1,-218.11 39.31,-300.48 26.21,-82.38 69.27,-158.2 129.18,-227.47 56.17,-65.53 118.89,-114.68 188.16,-147.44 69.27,-32.76 146.03,-49.14 230.28,-49.14 76.76,0 147.43,13.1 212.02,39.31 64.6,26.21 120.29,64.59 167.1,115.14 59.91,61.78 101.1,133.86 123.56,216.24 22.47,82.38 34.64,206.88 36.51,373.5l0 30.89 -873.38 0 0 33.7c0,65.53 4.68,123.57 14.04,174.12 9.36,50.55 26.21,94.54 50.55,131.99 39.32,59.91 89.87,103.44 151.65,130.58 61.78,27.15 127.31,40.72 196.58,40.72zm-89.86 -1112.08c-99.23,0 -176.46,36.51 -231.69,109.52 -55.23,73.02 -85.65,181.61 -91.27,325.76l640.29 0c-1.87,-76.76 -7.95,-139.47 -18.25,-188.15 -10.3,-48.68 -25.74,-89.87 -46.34,-123.57 -24.34,-37.44 -58.97,-67.39 -103.9,-89.86 -44.94,-22.47 -94.55,-33.7 -148.84,-33.7z"/>
   <path id="4" fill="#006AB3" fill-rule="nonzero" d="M22622.08 1726.98c0,-61.78 -1.87,-110.93 -5.62,-147.44 -3.74,-36.5 -11.23,-70.67 -22.46,-102.5 -1.87,-9.36 -5.15,-18.72 -9.83,-28.08 -4.68,-9.36 -8.89,-19.66 -12.64,-30.89l219.05 -58.98c5.62,13.11 11.23,25.75 16.85,37.92 5.61,12.16 10.3,23.87 14.04,35.1 5.62,20.59 9.83,41.19 12.64,61.78 2.81,20.6 4.21,44.93 4.21,73.02l0 19.66c44.93,-63.66 97.82,-116.08 158.67,-157.27 60.84,-41.19 124.03,-65.53 189.56,-73.01 7.49,0 14.98,-0.47 22.46,-1.41 7.49,-0.93 14.98,-1.4 22.47,-1.4 1.87,0 3.28,0 4.21,0 0.94,0 2.34,0 4.22,0 7.48,0 14.97,0.93 22.46,2.81 7.49,1.87 14.04,2.8 19.66,2.8 7.49,1.88 13.57,3.75 18.25,5.62 4.68,1.87 7.02,2.81 7.02,2.81l-89.86 238.7c-7.49,-1.87 -14.04,-3.74 -19.66,-5.61 -5.62,-1.88 -10.3,-2.81 -14.04,-2.81 -3.75,-1.87 -7.96,-2.81 -12.64,-2.81 -4.68,0 -9.83,0 -15.44,0 -41.19,0 -82.38,8.89 -123.57,26.68 -41.19,17.78 -77.69,42.59 -109.52,74.42 -7.49,7.49 -14.51,14.98 -21.06,22.46 -6.56,7.49 -12.64,14.05 -18.26,19.66 -16.85,22.47 -28.08,46.81 -33.7,73.02 -5.61,26.21 -8.42,61.78 -8.42,106.71l0 876.19 -219.05 0 0 -1067.15z"/>
  </g>
  <g id="_1840219740256">
   <path fill="#006AB3" d="M-0 2019.63l1900.82 0 6.61 3571.97c-1229.32,-838.17 -1869.23,-2101.68 -1907.43,-3571.97z"/>
   <path fill="#006AB3" d="M-0 1425.63l2494.83 0 13.21 4482.77c577.25,236.13 923.52,292.72 1537.81,323.4l-6.6 -6231.8 -4039.25 0 0 1425.63z"/>
  </g>
 </g>
</svg>
